# xmcd CD database file
#
# Track frame offsets:
#	150
#	23655
#	37008
#	62725
#	96495
#	110315
#	126380
#	149958
#	176443
#	203680
#	226090
#	250795
#
# Disc length: 3745 seconds
#
# Revision: 1
# Processed by: cddbd v1.5.1PL0 Copyright (c) Steve Scherf et al.
# Submitted via: CDex 1.51
#
DISCID=a90e9f0c
DTITLE=塩谷　哲 - THE SELECTION OF SALT
DYEAR=2005
DGENRE=Jazz
TTITLE0=TRANS CAFE
TTITLE1=SIDE BY SIDE（WE GO）
TTITLE2=AKOGARENO RIO DE JANEIRO
TTITLE3=WIND AND LEAF
TTITLE4=LIFE WITH YOU
TTITLE5=THE DEW OF LIFE
TTITLE6=SHUFFLIN' CITY
TTITLE7=GET UP‘N' GO
TTITLE8=FUN EXPRESS
TTITLE9=STORM FRONT
TTITLE10=ARICA
TTITLE11=HUMAN-TECH BOY
EXTD=YEAR: 2005
EXTT0=
EXTT1=
EXTT2=
EXTT3=
EXTT4=
EXTT5=
EXTT6=
EXTT7=
EXTT8=
EXTT9=
EXTT10=
EXTT11=
PLAYORDER=
